<mxfile host="app.diagrams.net" modified="2023-09-21T16:16:25.434Z" agent="Mozilla/5.0 (Windows NT 10.0; Win64; x64) AppleWebKit/537.36 (KHTML, like Gecko) Chrome/116.0.0.0 Safari/537.36" etag="VC72_99APVhZMAwcF8_d" version="21.8.0" type="device">
  <diagram id="R2lEEEUBdFMjLlhIrx00" name="Page-1">
    <mxGraphModel dx="1152" dy="741" grid="1" gridSize="10" guides="1" tooltips="1" connect="1" arrows="1" fold="1" page="1" pageScale="1" pageWidth="850" pageHeight="1100" math="0" shadow="0" extFonts="Permanent Marker^https://fonts.googleapis.com/css?family=Permanent+Marker">
      <root>
        <mxCell id="0" />
        <mxCell id="1" parent="0" />
        <mxCell id="gpQsvd7t5DxRkCJj9pPz-14" value="" style="shape=tableRow;horizontal=0;startSize=0;swimlaneHead=0;swimlaneBody=0;fillColor=none;collapsible=0;dropTarget=0;points=[[0,0.5],[1,0.5]];portConstraint=eastwest;top=0;left=0;right=0;bottom=0;" parent="1" vertex="1">
          <mxGeometry x="80" y="200" width="180" height="30" as="geometry" />
        </mxCell>
        <mxCell id="gpQsvd7t5DxRkCJj9pPz-15" value="" style="shape=partialRectangle;connectable=0;fillColor=none;top=0;left=0;bottom=0;right=0;editable=1;overflow=hidden;whiteSpace=wrap;html=1;" parent="gpQsvd7t5DxRkCJj9pPz-14" vertex="1">
          <mxGeometry width="30" height="30" as="geometry">
            <mxRectangle width="30" height="30" as="alternateBounds" />
          </mxGeometry>
        </mxCell>
        <mxCell id="gpQsvd7t5DxRkCJj9pPz-60" value="Книги" style="swimlane;childLayout=stackLayout;horizontal=1;startSize=50;horizontalStack=0;rounded=1;fontSize=14;fontStyle=0;strokeWidth=2;resizeParent=0;resizeLast=1;shadow=0;dashed=0;align=center;arcSize=4;whiteSpace=wrap;html=1;" parent="1" vertex="1">
          <mxGeometry x="590" y="80" width="220" height="180" as="geometry" />
        </mxCell>
        <mxCell id="gpQsvd7t5DxRkCJj9pPz-61" value="Шифр книги (PK)&lt;br&gt;Название&amp;nbsp;&lt;br&gt;id_автора_книги (FK)&lt;br&gt;Год издания&lt;br&gt;Объем (в страницах)&lt;br&gt;Цена&lt;br&gt;Количество экземпляров в фонде&lt;br&gt;Код издательства (FK)" style="align=left;strokeColor=none;fillColor=none;spacingLeft=4;fontSize=12;verticalAlign=top;resizable=0;rotatable=0;part=1;html=1;" parent="gpQsvd7t5DxRkCJj9pPz-60" vertex="1">
          <mxGeometry y="50" width="220" height="130" as="geometry" />
        </mxCell>
        <mxCell id="gpQsvd7t5DxRkCJj9pPz-62" value="Читатели" style="swimlane;childLayout=stackLayout;horizontal=1;startSize=50;horizontalStack=0;rounded=1;fontSize=14;fontStyle=0;strokeWidth=2;resizeParent=0;resizeLast=1;shadow=0;dashed=0;align=center;arcSize=4;whiteSpace=wrap;html=1;" parent="1" vertex="1">
          <mxGeometry x="40" y="80" width="200" height="180" as="geometry" />
        </mxCell>
        <mxCell id="gpQsvd7t5DxRkCJj9pPz-63" value="Номер читательского билета (PK)&lt;br&gt;ФИО&amp;nbsp;&lt;br&gt;Адрес&lt;br&gt;Телефон" style="align=left;strokeColor=none;fillColor=none;spacingLeft=4;fontSize=12;verticalAlign=top;resizable=0;rotatable=0;part=1;html=1;" parent="gpQsvd7t5DxRkCJj9pPz-62" vertex="1">
          <mxGeometry y="50" width="200" height="130" as="geometry" />
        </mxCell>
        <mxCell id="gpQsvd7t5DxRkCJj9pPz-64" value="Издательства" style="swimlane;childLayout=stackLayout;horizontal=1;startSize=50;horizontalStack=0;rounded=1;fontSize=14;fontStyle=0;strokeWidth=2;resizeParent=0;resizeLast=1;shadow=0;dashed=0;align=center;arcSize=4;whiteSpace=wrap;html=1;" parent="1" vertex="1">
          <mxGeometry x="331" y="280" width="160" height="120" as="geometry" />
        </mxCell>
        <mxCell id="gpQsvd7t5DxRkCJj9pPz-65" value="Код издательства (PK)&lt;br&gt;Название&amp;nbsp;&lt;br&gt;Город" style="align=left;strokeColor=none;fillColor=none;spacingLeft=4;fontSize=12;verticalAlign=top;resizable=0;rotatable=0;part=1;html=1;" parent="gpQsvd7t5DxRkCJj9pPz-64" vertex="1">
          <mxGeometry y="50" width="160" height="70" as="geometry" />
        </mxCell>
        <mxCell id="gpQsvd7t5DxRkCJj9pPz-68" value="Учет выданных книг" style="swimlane;childLayout=stackLayout;horizontal=1;startSize=50;horizontalStack=0;rounded=1;fontSize=14;fontStyle=0;strokeWidth=2;resizeParent=0;resizeLast=1;shadow=0;dashed=0;align=center;arcSize=4;whiteSpace=wrap;html=1;" parent="1" vertex="1">
          <mxGeometry x="301" y="80" width="220" height="180" as="geometry" />
        </mxCell>
        <mxCell id="gpQsvd7t5DxRkCJj9pPz-69" value="Номер записи (PK)&lt;br&gt;Номер читательского билета (FK)&lt;br&gt;Шифр книги (FK)&lt;br style=&quot;--tw-border-spacing-x: 0; --tw-border-spacing-y: 0; --tw-translate-x: 0; --tw-translate-y: 0; --tw-rotate: 0; --tw-skew-x: 0; --tw-skew-y: 0; --tw-scale-x: 1; --tw-scale-y: 1; --tw-pan-x: ; --tw-pan-y: ; --tw-pinch-zoom: ; --tw-scroll-snap-strictness: proximity; --tw-ordinal: ; --tw-slashed-zero: ; --tw-numeric-figure: ; --tw-numeric-spacing: ; --tw-numeric-fraction: ; --tw-ring-inset: ; --tw-ring-offset-width: 0px; --tw-ring-offset-color: #fff; --tw-ring-color: rgb(59 130 246 / .5); --tw-ring-offset-shadow: 0 0 #0000; --tw-ring-shadow: 0 0 #0000; --tw-shadow: 0 0 #0000; --tw-shadow-colored: 0 0 #0000; --tw-blur: ; --tw-brightness: ; --tw-contrast: ; --tw-grayscale: ; --tw-hue-rotate: ; --tw-invert: ; --tw-saturate: ; --tw-sepia: ; --tw-drop-shadow: ; --tw-backdrop-blur: ; --tw-backdrop-brightness: ; --tw-backdrop-contrast: ; --tw-backdrop-grayscale: ; --tw-backdrop-hue-rotate: ; --tw-backdrop-invert: ; --tw-backdrop-opacity: ; --tw-backdrop-saturate: ; --tw-backdrop-sepia: ; border-color: var(--border-color);&quot;&gt;Дата выдачи&lt;br&gt;Дата возврата" style="align=left;strokeColor=none;fillColor=none;spacingLeft=4;fontSize=12;verticalAlign=top;resizable=0;rotatable=0;part=1;html=1;" parent="gpQsvd7t5DxRkCJj9pPz-68" vertex="1">
          <mxGeometry y="50" width="220" height="130" as="geometry" />
        </mxCell>
        <mxCell id="gpQsvd7t5DxRkCJj9pPz-72" value="" style="edgeStyle=entityRelationEdgeStyle;fontSize=12;html=1;endArrow=ERoneToMany;rounded=0;exitX=0;exitY=0.5;exitDx=0;exitDy=0;entryX=1;entryY=0.5;entryDx=0;entryDy=0;" parent="1" source="gpQsvd7t5DxRkCJj9pPz-61" target="gpQsvd7t5DxRkCJj9pPz-69" edge="1">
          <mxGeometry width="100" height="100" relative="1" as="geometry">
            <mxPoint x="480" y="480" as="sourcePoint" />
            <mxPoint x="580" y="380" as="targetPoint" />
          </mxGeometry>
        </mxCell>
        <mxCell id="gpQsvd7t5DxRkCJj9pPz-74" value="" style="edgeStyle=entityRelationEdgeStyle;fontSize=12;html=1;endArrow=ERoneToMany;rounded=0;entryX=0;entryY=0.5;entryDx=0;entryDy=0;" parent="1" source="gpQsvd7t5DxRkCJj9pPz-63" target="gpQsvd7t5DxRkCJj9pPz-69" edge="1">
          <mxGeometry width="100" height="100" relative="1" as="geometry">
            <mxPoint x="480" y="480" as="sourcePoint" />
            <mxPoint x="270" y="400" as="targetPoint" />
          </mxGeometry>
        </mxCell>
        <mxCell id="gpQsvd7t5DxRkCJj9pPz-76" value="" style="edgeStyle=entityRelationEdgeStyle;fontSize=12;html=1;endArrow=ERoneToMany;rounded=0;exitX=1;exitY=0.25;exitDx=0;exitDy=0;entryX=0;entryY=0.6;entryDx=0;entryDy=0;entryPerimeter=0;" parent="1" source="gpQsvd7t5DxRkCJj9pPz-65" target="gpQsvd7t5DxRkCJj9pPz-61" edge="1">
          <mxGeometry width="100" height="100" relative="1" as="geometry">
            <mxPoint x="290" y="490" as="sourcePoint" />
            <mxPoint x="400" y="500" as="targetPoint" />
            <Array as="points">
              <mxPoint x="550" y="370" />
              <mxPoint x="550" y="350" />
              <mxPoint x="570" y="200" />
              <mxPoint x="580" y="390" />
              <mxPoint x="580" y="350" />
              <mxPoint x="560" y="410" />
            </Array>
          </mxGeometry>
        </mxCell>
        <mxCell id="2f6yD6ce0UlCPD5oNdGr-1" value="Читатели" style="swimlane;childLayout=stackLayout;horizontal=1;startSize=50;horizontalStack=0;rounded=1;fontSize=14;fontStyle=0;strokeWidth=2;resizeParent=0;resizeLast=1;shadow=0;dashed=0;align=center;arcSize=4;whiteSpace=wrap;html=1;" vertex="1" parent="1">
          <mxGeometry x="40" y="80" width="200" height="180" as="geometry" />
        </mxCell>
        <mxCell id="2f6yD6ce0UlCPD5oNdGr-2" value="Номер читательского билета (PK)&lt;br&gt;ФИО&amp;nbsp;&lt;br&gt;Адрес&lt;br&gt;Телефон" style="align=left;strokeColor=none;fillColor=none;spacingLeft=4;fontSize=12;verticalAlign=top;resizable=0;rotatable=0;part=1;html=1;" vertex="1" parent="2f6yD6ce0UlCPD5oNdGr-1">
          <mxGeometry y="50" width="200" height="130" as="geometry" />
        </mxCell>
        <mxCell id="2f6yD6ce0UlCPD5oNdGr-3" value="Автор" style="swimlane;childLayout=stackLayout;horizontal=1;startSize=50;horizontalStack=0;rounded=1;fontSize=14;fontStyle=0;strokeWidth=2;resizeParent=0;resizeLast=1;shadow=0;dashed=0;align=center;arcSize=4;whiteSpace=wrap;html=1;" vertex="1" parent="1">
          <mxGeometry x="311" y="440" width="200" height="180" as="geometry" />
        </mxCell>
        <mxCell id="2f6yD6ce0UlCPD5oNdGr-4" value="id_автора (PK)&lt;br&gt;ФИО&amp;nbsp;&lt;br&gt;&lt;br&gt;" style="align=left;strokeColor=none;fillColor=none;spacingLeft=4;fontSize=12;verticalAlign=top;resizable=0;rotatable=0;part=1;html=1;" vertex="1" parent="2f6yD6ce0UlCPD5oNdGr-3">
          <mxGeometry y="50" width="200" height="130" as="geometry" />
        </mxCell>
        <mxCell id="2f6yD6ce0UlCPD5oNdGr-5" value="Автор книги" style="swimlane;childLayout=stackLayout;horizontal=1;startSize=50;horizontalStack=0;rounded=1;fontSize=14;fontStyle=0;strokeWidth=2;resizeParent=0;resizeLast=1;shadow=0;dashed=0;align=center;arcSize=4;whiteSpace=wrap;html=1;" vertex="1" parent="1">
          <mxGeometry x="590" y="440" width="200" height="180" as="geometry" />
        </mxCell>
        <mxCell id="2f6yD6ce0UlCPD5oNdGr-6" value="id_автора_книги (PK)&lt;br&gt;id_автора (FK)&lt;br&gt;Шифр книги (FK)" style="align=left;strokeColor=none;fillColor=none;spacingLeft=4;fontSize=12;verticalAlign=top;resizable=0;rotatable=0;part=1;html=1;" vertex="1" parent="2f6yD6ce0UlCPD5oNdGr-5">
          <mxGeometry y="50" width="200" height="130" as="geometry" />
        </mxCell>
        <mxCell id="2f6yD6ce0UlCPD5oNdGr-7" value="" style="edgeStyle=entityRelationEdgeStyle;fontSize=12;html=1;endArrow=ERmany;rounded=0;exitX=-0.01;exitY=0.454;exitDx=0;exitDy=0;entryX=0.99;entryY=0.446;entryDx=0;entryDy=0;exitPerimeter=0;entryPerimeter=0;" edge="1" parent="1" source="2f6yD6ce0UlCPD5oNdGr-6" target="2f6yD6ce0UlCPD5oNdGr-4">
          <mxGeometry width="100" height="100" relative="1" as="geometry">
            <mxPoint x="380" y="380" as="sourcePoint" />
            <mxPoint x="340" y="565" as="targetPoint" />
          </mxGeometry>
        </mxCell>
        <mxCell id="2f6yD6ce0UlCPD5oNdGr-8" value="" style="edgeStyle=entityRelationEdgeStyle;fontSize=12;html=1;endArrow=ERmany;rounded=0;exitX=0.995;exitY=0.446;exitDx=0;exitDy=0;exitPerimeter=0;" edge="1" parent="1" source="2f6yD6ce0UlCPD5oNdGr-6" target="gpQsvd7t5DxRkCJj9pPz-61">
          <mxGeometry width="100" height="100" relative="1" as="geometry">
            <mxPoint x="540" y="530" as="sourcePoint" />
            <mxPoint x="830" y="290" as="targetPoint" />
            <Array as="points">
              <mxPoint x="570" y="310" />
              <mxPoint x="520" y="490" />
              <mxPoint x="590" y="520" />
              <mxPoint x="540" y="460" />
              <mxPoint x="590" y="420" />
              <mxPoint x="570" y="310" />
            </Array>
          </mxGeometry>
        </mxCell>
      </root>
    </mxGraphModel>
  </diagram>
</mxfile>
